<svg xmlns="http://www.w3.org/2000/svg" xmlns:xlink="http://www.w3.org/1999/xlink" width="680" height="220" version="1" style=""><rect id="backgroundrect" width="100%" height="100%" x="0" y="0" fill="none" stroke="none"/><defs><linearGradient id="b"><stop offset="0"/><stop offset=".234" stop-color="#000908"/><stop offset=".436" stop-color="#fe1211"/><stop offset=".499" stop-color="#ffbd08"/><stop offset=".516" stop-color="#fbe339"/><stop offset=".547" stop-color="#eef681"/><stop offset=".611" stop-color="#c0f8ba"/><stop offset=".726" stop-color="#c0f8ba"/><stop offset=".77" stop-color="#9ffded"/><stop offset=".93" stop-color="#65f0f7"/><stop offset="1" stop-color="#68dbfd"/></linearGradient><linearGradient id="a"><stop offset="0"/><stop offset=".34"/><stop offset=".461" stop-color="red"/><stop offset=".477" stop-color="#ff6100"/><stop offset=".495" stop-color="#ffe000"/><stop offset=".509" stop-color="#0f0"/><stop offset=".529" stop-color="#007c9e"/><stop offset=".554" stop-color="#000071"/><stop offset=".571" stop-color="#830087"/><stop offset=".586" stop-color="#ff37c3"/><stop offset=".714"/><stop offset="1"/></linearGradient><linearGradient id="l" x1="-0.001904755481518805" x2="1.0019038915634155" xlink:href="#a" y1="0.49999940395355225" y2="0.49999940395355225"/><filter id="d" width="2.306999921798706" y="-0.6530002355575562" x="-0.6530002355575562" height="2.306999921798706"><feGaussianBlur stdDeviation="1.361"/></filter><filter id="f"><feGaussianBlur stdDeviation="2.087"/></filter><filter id="g"><feGaussianBlur stdDeviation=".719"/></filter><linearGradient xlink:href="#b" id="c" x1="-0.0009342345292679965" y1="0.4998069703578949" x2="1.0009337663650513" y2="0.4998069703578949"/></defs><g class="currentLayer" style=""><title>Layer 1</title><path d="M126.5 47.503c.88.352 1.76.717 2.638 1.094.88.378 1.76.768 2.638 1.17.88.404 1.76.82 2.64 1.248.878.43 1.757.87 2.637 1.326.88.46 1.76.93 2.638 1.41.88.48 1.76.98 2.64 1.48.88.51 1.76 1.03 2.64 1.56.88.53 1.76 1.08 2.64 1.63.88.56 1.76 1.12 2.64 1.7.88.58 1.76 1.17 2.64 1.76.88.6 1.76 1.21 2.64 1.82.88.62 1.76 1.24 2.64 1.87.88.63 1.76 1.26 2.64 1.9l2.64 1.92c.88.64 1.76 1.29 2.64 1.93.88.64 1.76 1.28 2.64 1.91.88.64 1.76 1.26 2.64 1.88.88.62 1.76 1.23 2.64 1.83.88.6 1.76 1.18 2.64 1.75.88.57 1.76 1.11 2.64 1.63.88.52 1.76 1.02 2.64 1.49.88.47 1.76.91 2.64 1.32.88.41 1.76.78 2.64 1.12.88.34 1.76.63 2.64.88.88.25 1.76.45 2.64.61.88.15 1.76.25 2.64.3.88.04 1.76.03 2.64-.04.88-.07 1.76-.21 2.64-.41.88-.2 1.76-.47 2.64-.81.88-.34 1.76-.74 2.64-1.22.88-.48 1.76-1.03 2.64-1.65.88-.62 1.76-1.31 2.64-2.07.88-.76 1.76-1.59 2.64-2.49.88-.9 1.76-1.87 2.64-2.89.88-1.03 1.76-2.12 2.64-3.26.88-1.14 1.76-2.34 2.64-3.57.88-1.24 1.76-2.52 2.64-3.83.88-1.3 1.76-2.64 2.64-3.99.88-1.35 1.76-2.71 2.64-4.06.88-1.35 1.76-2.7 2.64-4.01.88-1.32 1.76-2.6 2.64-3.84.88-1.24 1.76-2.42 2.64-3.53.88-1.11 1.76-2.14 2.64-3.07.88-.93 1.76-1.76 2.64-2.47.88-.71 1.76-1.3 2.64-1.74.88-.44 1.76-.74 2.64-.88.88-.14 1.76-.12 2.64.08.88.2 1.76.56 2.64 1.1.88.54 1.76 1.26 2.64 2.15.88.89 1.76 1.95 2.64 3.18.88 1.22 1.76 2.6 2.64 4.12.88 1.52 1.76 3.17 2.64 4.93.88 1.76 1.76 3.61 2.64 5.53.88 1.91 1.76 3.88 2.64 5.86.88 1.97 1.76 3.95 2.64 5.87.88 1.92 1.76 3.78 2.64 5.53.88 1.75 1.76 3.37 2.64 4.82.88 1.44 1.76 2.71 2.64 3.74.88 1.03 1.76 1.82 2.64 2.33.88.51 1.76.74 2.64.66.88-.08 1.76-.47 2.64-1.17.88-.71 1.76-1.72 2.64-3.03.88-1.31 1.76-2.91 2.64-4.76.88-1.85 1.76-3.94 2.64-6.2.88-2.26 1.76-4.69 2.64-7.19.88-2.5 1.76-5.06 2.64-7.57.88-2.51 1.76-4.97 2.64-7.26.88-2.29 1.76-4.39 2.64-6.2.88-1.81 1.76-3.32 2.64-4.43.88-1.11 1.76-1.83 2.64-2.08.88-.25 1.76-.04 2.64.66.88.69 1.76 1.87 2.64 3.48.88 1.61 1.76 3.66 2.64 6.04.88 2.39 1.76 5.11 2.64 8 .88 2.9 1.76 5.98 2.64 9.03.88 3.06 1.76 6.09 2.64 8.89.88 2.8 1.76 5.36 2.64 7.48.88 2.12 1.76 3.8 2.64 4.89.88 1.09 1.76 1.59 2.64 1.41.88-.17 1.76-1.01 2.64-2.49.88-1.47 1.76-3.59 2.63-6.2.88-2.61 1.76-5.72 2.64-9.07.88-3.35 1.76-6.96 2.64-10.49.88-3.54 1.76-7.01 2.64-10.08.88-3.07 1.76-5.74 2.64-7.72.88-1.99 1.76-3.28 2.64-3.72.88-.45 1.76-.03 2.64 1.25.88 1.28 1.76 3.42 2.64 6.23.88 2.81 1.76 6.3 2.64 10.11.88 3.81 1.76 7.93 2.64 11.91.88 3.98 1.76 7.81 2.64 11.01.88 3.21 1.76 5.79 2.64 7.4.88 1.61 1.76 2.23 2.64 1.74.88-.49 1.76-2.09 2.64-4.66.88-2.56 1.76-6.08 2.64-10.13.88-4.05 1.76-8.61 2.64-13.07.88-4.47 1.76-8.81 2.64-12.41.87-3.6 1.75-6.43 2.63-8.03.88-1.61 1.76-1.97 2.64-.98.88.99 1.76 3.34 2.64 6.74.88 3.39 1.76 7.83 2.63 12.616.88 4.79 1.76 9.91 2.64 14.52.88 4.6 1.76 8.67 2.64 11.45.88 2.78 1.75 4.26 2.63 4.11.88-.15 1.76-1.94 2.64-5.1.88-3.16 1.76-7.7 2.64-12.78.88-5.09 1.76-10.71 2.64-15.77.88-5.06 1.76-9.52 2.64-12.46.88-2.93 1.76-4.3 2.64-3.75.88.55 1.76 3.03 2.64 6.98.88 3.95 1.76 9.36 2.64 15.07.88 5.71 1.76 11.69 2.64 16.57.88 4.88 1.76 8.615 2.64 10.27.88 1.66 1.76 1.207 2.64-1.33.88-2.53 1.76-7.15 2.64-12.76.88-5.615 1.76-12.19 2.64-18.065.88-5.88 1.76-10.99 2.64-13.94.88-2.96 1.76-3.71 2.64-1.97.88 1.74 1.76 5.98 2.64 11.62.88 5.64 1.76 12.63 2.64 19 .88 6.37 1.76 12.04 2.64 15.29.88 3.25 1.76 4.028 2.64 1.997.88-2.03 1.75-6.87 2.63-13.1.88-6.24 1.76-13.78 2.64-20.26.88-6.49 1.76-11.79 2.64-14.12.88-2.34 1.76-1.62 2.64 2 .88 3.62 1.76 10.11 2.64 17.32.88 7.21 1.76 15.01 2.64 20.64.88 5.627 1.76 8.93 2.64 8.64.88-.29 1.76-4.23 2.64-10.45.88-6.22 1.76-14.6 2.64-22.01.88-7.4 1.76-13.62 2.64-16.17.88-2.55 1.76-1.32 2.64 3.31.88 4.64 1.76 12.6 2.64 20.69.88 8.09 1.76 16.08 2.64 20.57.88 4.49 1.76 5.31 2.64 1.97.88-3.33 1.76-10.76 2.64-19.1.88-8.34 1.76-17.32 2.64-22.86.88-5.54 1.76-7.39 2.64-4.59.88 2.807 1.76 10.23 2.64 18.86.88 8.63 1.76 18.14 2.64 23.89.88 5.75 1.76 7.467 2.64 4.16.88-3.31 1.76-11.563 2.64-20.67.88-9.11 1.76-18.67 2.64-23.663.88-5 1.76-5.14 2.64-.2.88 4.94 1.76 14.77 2.64 24.23.88 9.47 1.76 18.06 2.64 20.92.88 2.867 1.76-.24 2.64-7.692.88-7.45 1.76-18.88 2.64-27.69.88-8.81 1.76-14.41 2.64-13.35.88 1.05 1.76 8.78 2.64 18.64.88 9.86 1.76 21.19 2.64 26.96.88 5.76 1.76 5.46 2.64-.89.88-6.34 1.76-18.33 2.64-28.29.88-9.97 1.76-17.08 2.64-16.53.88.55 1.76 8.83 2.64 19.41.88 10.59 1.76 22.57 2.64 27.69.88 5.12 1.76 2.8 2.63-5.52.88-8.32 1.76-21.9 2.64-31.1.88-9.19 1.76-12.98 2.64-8.44.88 4.54 1.76 17.04 2.64 28.34.88 11.29 1.76 20.07 2.64 19.57.88-.5 1.76-10.36 2.64-22.14.88-11.78 1.76-24.03 2.63-27.04.88-3.01 1.76 3.75 2.64 15.058.88 11.31 1.76 25.67 2.64 31.34.88 5.67 1.76 1.7 2.64-8.82.88-10.52 1.76-26.09 2.64-33.54.88-7.45 1.76-5.47 2.64 4.44.88 9.9 1.76 26.23 2.64 34.67.88 8.44 1.76 7.41 2.64-2.38.88-9.79 1.76-26.7 2.64-35.4.88-8.7 1.76-7.41 2.64 2.89.88 10.3 1.76 27.72 2.64 35.9.88 8.17 1.76 5.25 2.64-6.18.88-11.43 1.76-29.05 2.64-35.71.88-6.66 1.76-.66 2.64 12.27.88 12.93 1.76 29.87 2.64 33.73.88 3.86 1.76-6.53 2.64-20.76.88-14.23 1.76-28.71 2.64-28.29.88.42 1.76 15.88 2.64 30.25.88 14.37 1.76 23.6 2.64 17.62.88-5.98 1.76-25.69 2.64-37.77.88-12.09 1.76-12.74 2.64-1.01.88 11.73 1.76 32.33 2.64 38.68.88 6.35 1.76-3.91 2.64-19.32.88-15.4 1.76-30.72 2.64-28.114.88 2.61 1.76 22.526 2.64 36.53.88 14.004 1.76 16.74 2.64 4.72.88-12.02 1.76-34.36 2.64-40.04.88-5.68 1.76 7.92 2.64 24.36.88 16.44 1.76 28.814 2.64 21.574.88-7.24 1.76-31.26 2.64-41.89.88-10.63 1.76-2.75 2.64 13.83.88 16.57 1.76 34.09 2.64 29.74.88-4.34 1.76-28.8 2.63-41.41.88-12.61 1.76-6.65 2.64 10.21.88 16.86 1.76 35.78 2.64 31.15.88-4.63 1.76-30.65 2.64-42.69" fill="none" stroke="red" stroke-width="2" stroke-miterlimit="2" id="svg_6"/><path d="M265.316 21.75v-8.59h1.166l4.512 6.744V13.16h1.09v8.59h-1.166L266.406 15v6.75z" font-size="12" font-family="Arial" fill="#fff" id="svg_8" class=""/><g id="svg_188" class=""><path fill="url(#l)" stroke="#000" stroke-miterlimit="2" d="M 111 145.845 h 548.335 v 25 H 111 Z" id="svg_189"/><path d="M 125.335 135.408 V 180.345" fill="none" stroke="#000" id="svg_190"/><path d="M 215 135.345 v 45" fill="none" stroke="#000" id="svg_191"/><path d="M 320 135.345 v 45" fill="none" stroke="#000" id="svg_192"/><path d="M 425 135.345 v 45" fill="none" stroke="#000" id="svg_193"/><path d="M 485 135.345 v 45" fill="none" stroke="#000" id="svg_194"/><path d="M 550 135.345 v 45" fill="none" stroke="#000" id="svg_195"/><path d="M 620 135.345 v 45" fill="none" stroke="#000" id="svg_196"/><g font-size="12" font-family="Arial" id="svg_197"><text x="115.5" y="197.595" id="svg_198"><tspan x="115.5" y="197.5948257446289" id="svg_199">10</tspan></text><text x="129.93" y="191.787" id="svg_200"><tspan x="129.93" y="191.7868257446289" font-size="9" id="svg_201">4</tspan></text></g><g font-size="12" font-family="Arial" id="svg_202"><text x="204.693" y="198.199" id="svg_203"><tspan x="204.69299999999998" y="198.1988257446289" id="svg_204">10</tspan></text><text x="219.123" y="192.391" id="svg_205"><tspan x="219.123" y="192.3908257446289" font-size="9" id="svg_206">8</tspan></text><g id="svg_207"><text x="308" y="197.595" id="svg_208"><tspan x="308" y="197.5948257446289" id="svg_209">10</tspan></text><text x="320.43" y="191.787" id="svg_210"><tspan x="320.43" y="191.7868257446289" font-size="9" id="svg_211">12</tspan></text></g><g id="svg_212"><text x="413.57" y="197.653" id="svg_213"><tspan x="413.5703125" y="197.65244294703007" id="svg_214">10</tspan></text><text x="426" y="191.845" id="svg_215"><tspan x="426.0003125" y="191.84444294703007" font-size="9" id="svg_216">15</tspan></text></g></g><g font-size="12" font-family="Arial" id="svg_217"><text x="473" y="197.595" id="svg_218"><tspan x="473" y="197.5948257446289" id="svg_219">10</tspan></text><text x="485.43" y="191.787" id="svg_220"><tspan x="485.43" y="191.7868257446289" font-size="9" id="svg_221">16</tspan></text></g><g font-size="12" font-family="Arial" id="svg_222"><text x="538" y="197.595" id="svg_223"><tspan x="538" y="197.5948257446289" id="svg_224">10</tspan></text><text x="550.43" y="191.787" id="svg_225"><tspan x="550.4300000000001" y="191.7868257446289" font-size="9" id="svg_226">18</tspan></text></g><g font-size="12" font-family="Arial" id="svg_227"><text x="608.5" y="197.595" id="svg_228"><tspan x="608.5" y="197.5948257446289" id="svg_229">10</tspan></text><text x="620.93" y="191.787" id="svg_230"><tspan x="620.9300000000001" y="191.7868257446289" font-size="9" id="svg_231">20</tspan></text></g></g><path d="M535.022 21.75v-8.59h1.166l4.512 6.744V13.16h1.09v8.59h-1.166L536.112 15v6.75z" font-size="12" font-family="Arial" fill="#fff" id="svg_244" class=""/><g font-size="12" font-family="Arial" id="svg_248"><text x="125.5" y="109" style="line-height:125%;text-align:start" font-weight="bold" id="svg_249"><tspan x="125.5" y="109" id="svg_250">Radio</tspan></text><text x="222.724" y="109" style="line-height:125%;text-align:start" font-weight="bold" id="svg_251"><tspan x="222.724" y="109" id="svg_252">Microwave</tspan></text><text x="317.478" y="109" style="line-height:125%;text-align:start" font-weight="bold" id="svg_253"><tspan x="317.478" y="109" id="svg_254">Infrared</tspan></text><text x="393.005" y="109" style="line-height:125%;text-align:start" font-weight="bold" id="svg_255"><tspan x="393.005" y="109" id="svg_256">Visible</tspan></text><text x="456.028" y="109" style="line-height:125%;text-align:start" font-weight="bold" id="svg_257"><tspan x="456.028" y="109" id="svg_258">Ultraviolet</tspan></text><text x="537.004" y="109" style="line-height:125%;text-align:start" font-weight="bold" id="svg_259"><tspan x="537.004" y="109" id="svg_260">X-ray</tspan></text><text x="593.887" y="109" style="line-height:125%;text-align:start" font-weight="bold" id="svg_261"><tspan x="593.887" y="109" id="svg_262">Gamma ray</tspan></text><g id="svg_263"><text y="126.065" x="132.362" id="svg_264"><tspan y="126.06494140625" x="132.361572265625" id="svg_265">10</tspan></text><text y="120.257" x="144.792" id="svg_266"><tspan y="120.25694140625001" x="144.791572265625" font-size="9" id="svg_267">3</tspan></text></g><g id="svg_268"><text y="126.065" x="239.862" id="svg_269"><tspan y="126.06494140625" x="239.861572265625" id="svg_270">10</tspan></text><text y="120.257" x="253.292" id="svg_271"><tspan y="120.25694140625001" x="253.291572265625" font-size="9" id="svg_272">−2</tspan></text></g><g id="svg_273"><text y="126.065" x="327.862" id="svg_274"><tspan y="126.06494140625" x="327.861572265625" id="svg_275">10</tspan></text><text y="120.257" x="341.292" id="svg_276"><tspan y="120.25694140625001" x="341.291572265625" font-size="9" id="svg_277">−5</tspan></text></g><g id="svg_278"><text y="126.065" x="388.362" id="svg_279"><tspan y="126.06494140625" x="388.361572265625" id="svg_280">0.5×10</tspan></text><text y="120.257" x="427.792" id="svg_281"><tspan y="120.25694140625001" x="427.791572265625" font-size="9" id="svg_282">−6</tspan></text></g><g id="svg_283"><text y="126.065" x="475.362" id="svg_284"><tspan y="126.06494140625" x="475.361572265625" id="svg_285">10</tspan></text><text y="120.257" x="488.292" id="svg_286"><tspan y="120.25694140625001" x="488.291572265625" font-size="9" id="svg_287">−8</tspan></text></g><g id="svg_288"><text y="126.065" x="538.362" id="svg_289"><tspan y="126.06494140625" x="538.361572265625" id="svg_290">10</tspan></text><text y="120.257" x="551.292" id="svg_291"><tspan y="120.25694140625001" x="551.291572265625" font-size="9" id="svg_292">−10</tspan></text></g><g id="svg_293"><text y="126.065" x="616.362" id="svg_294"><tspan y="126.06494140625" x="616.361572265625" id="svg_295">10</tspan></text><text y="120.257" x="629.292" id="svg_296"><tspan y="120.25694140625001" x="629.291572265625" font-size="9" id="svg_297">−12</tspan></text></g><text y="109.103" x="102.976" style="text-align:end" text-anchor="end" id="svg_298"><tspan y="109.10300000000001" x="102.976" id="svg_299">Radiation Type</tspan></text><text y="126" x="19.866" id="svg_300"><tspan y="126" x="19.866" id="svg_301">Wavelength (m)</tspan></text></g><text style="text-align:end" x="102.73" y="161.448" font-size="12" font-family="Arial" text-anchor="end" id="svg_305" class=""><tspan x="102.73" y="161.44782574462891" id="svg_306">Frequency (Hz)</tspan></text></g></svg>